<svg width="26" height="25" viewBox="0 0 26 25" fill="none" xmlns="http://www.w3.org/2000/svg">
<path d="M8.8125 22.6562C9.67545 22.6562 10.375 21.9567 10.375 21.0938C10.375 20.2308 9.67545 19.5312 8.8125 19.5312C7.94956 19.5312 7.25 20.2308 7.25 21.0938C7.25 21.9567 7.94956 22.6562 8.8125 22.6562Z" fill="#94A3B1"/>
<path d="M18.9688 22.6562C19.8317 22.6562 20.5312 21.9567 20.5312 21.0938C20.5312 20.2308 19.8317 19.5312 18.9688 19.5312C18.1058 19.5312 17.4062 20.2308 17.4062 21.0938C17.4062 21.9567 18.1058 22.6562 18.9688 22.6562Z" fill="#94A3B1"/>
<path d="M5.13086 7.03125H22.6504L20.0723 16.0547C19.9803 16.3822 19.7833 16.6704 19.5116 16.875C19.2399 17.0797 18.9085 17.1895 18.5684 17.1875H9.21289C8.87274 17.1895 8.54135 17.0797 8.26965 16.875C7.99795 16.6704 7.80097 16.3822 7.70898 16.0547L4.17383 3.69141C4.12711 3.52808 4.02843 3.38443 3.89275 3.28222C3.75706 3.18002 3.59175 3.12482 3.42188 3.125H1.78125" stroke="#94A3B1" stroke-width="2" stroke-linecap="round" stroke-linejoin="round"/>
</svg>
