<svg width="15" height="20" viewBox="0 0 15 20" fill="none" xmlns="http://www.w3.org/2000/svg">
<path d="M6.88851e-05 7.17422C6.88851e-05 6.30953 0.147382 5.49264 0.437675 4.73021C0.715028 3.98967 1.1271 3.31 1.65192 2.72743C2.17568 2.1525 2.77504 1.65535 3.43268 1.25035C4.10741 0.831515 4.83789 0.515533 5.60121 0.312313C6.37375 0.104168 7.16924 -0.000801753 7.96797 4.6105e-06C9.20172 4.6105e-06 10.3499 0.267857 11.4147 0.801338C12.4655 1.32509 13.36 2.12887 14.0046 3.12865C14.6696 4.1456 15 5.29592 15 6.5785C15 7.3476 14.9263 8.10003 14.7758 8.83579C14.6279 9.57114 14.393 10.2852 14.076 10.9619C13.774 11.6171 13.379 12.2227 12.904 12.7591C12.4267 13.287 11.8485 13.7084 11.2056 13.9972C10.5076 14.3111 9.75254 14.4691 8.9905 14.4607C8.46082 14.4607 7.93223 14.3329 7.41013 14.0761C6.88804 13.8205 6.51325 13.4693 6.28795 13.0192C6.20888 13.3315 6.10056 13.7827 5.9565 14.3729C5.81785 14.9619 5.7247 15.342 5.68354 15.5143C5.64021 15.6855 5.56005 15.9711 5.44307 16.3668C5.36373 16.6595 5.26196 16.9452 5.13869 17.2215L4.76608 17.9705C4.60494 18.292 4.42479 18.603 4.22665 18.9019C4.0306 19.1931 3.78796 19.541 3.49875 19.9411L3.33736 20L3.23012 19.88C3.11422 18.6207 3.05465 17.8672 3.05465 17.6182C3.05465 16.8814 3.14022 16.0545 3.3092 15.1364C3.47492 14.2195 3.73705 13.067 4.08909 11.681C4.44112 10.2962 4.6426 9.48152 4.69675 9.24035C4.44871 8.72131 4.32306 8.04335 4.32306 7.20978C4.32306 6.54404 4.52561 5.92054 4.93181 5.33371C5.33908 4.7491 5.8536 4.4568 6.47751 4.4568C6.95519 4.4568 7.32564 4.61906 7.59102 4.94471C7.85749 5.26924 7.98747 5.67825 7.98747 6.17727C7.98747 6.70631 7.81632 7.47208 7.47187 8.47347C7.12742 9.47597 6.95628 10.224 6.95628 10.7208C6.95628 11.2242 7.13175 11.6455 7.4827 11.9756C7.82905 12.3058 8.28707 12.4848 8.75978 12.4746C9.18872 12.4746 9.58625 12.3745 9.95561 12.1734C10.3192 11.9781 10.6339 11.6993 10.8752 11.3587C11.4008 10.6188 11.7755 9.77775 11.9768 8.8858C12.0808 8.41678 12.161 7.97111 12.2108 7.5521C12.2639 7.13087 12.2866 6.73298 12.2866 6.3551C12.2866 4.96916 11.8577 3.88886 11.0052 3.11531C10.1484 2.34177 9.03274 1.95721 7.66035 1.95721C6.09948 1.95721 4.79424 2.47514 3.74897 3.51431C2.70261 4.55016 2.17619 5.86719 2.17619 7.4643C2.17619 7.81662 2.22818 8.15671 2.32675 8.48569C2.42315 8.81356 2.52822 9.07474 2.64195 9.26813C2.75461 9.45818 2.86076 9.64379 2.95716 9.81495C3.05465 9.98611 3.10556 10.1084 3.10556 10.1817C3.10556 10.4062 3.04815 10.6985 2.93225 11.0597C2.81201 11.421 2.67012 11.601 2.49897 11.601C2.48273 11.601 2.41557 11.5888 2.29859 11.5632C1.89343 11.4391 1.52755 11.2071 1.23815 10.8908C0.930998 10.563 0.688599 10.1773 0.52433 9.75493C0.360528 9.3341 0.232948 8.89935 0.143049 8.45568C0.0459218 8.03588 -0.00207703 7.60569 6.88851e-05 7.17422Z" fill="white"/>
</svg>
