<svg width="23" height="21" viewBox="0 0 23 21" fill="none" xmlns="http://www.w3.org/2000/svg">
<path d="M11.5 19.0938C11.5 19.0938 1.73438 13.625 1.73438 6.98438C1.73438 5.81044 2.14111 4.67276 2.88537 3.76491C3.62964 2.85705 4.66546 2.2351 5.8166 2.00487C6.96774 1.77464 8.16309 1.95036 9.19928 2.50213C10.2355 3.05389 11.0485 3.94762 11.5 5.03126V5.03126C11.9515 3.94762 12.7645 3.05389 13.8007 2.50213C14.8369 1.95036 16.0323 1.77464 17.1834 2.00487C18.3345 2.2351 19.3704 2.85705 20.1146 3.76491C20.8589 4.67276 21.2656 5.81044 21.2656 6.98438C21.2656 13.625 11.5 19.0938 11.5 19.0938Z" stroke="#94A3B1" stroke-width="2" stroke-linecap="round" stroke-linejoin="round"/>
</svg>
